<svg width="509" height="359" xmlns="http://www.w3.org/2000/svg" xmlns:xlink="http://www.w3.org/1999/xlink" overflow="hidden"><defs><clipPath id="clip0"><path d="M676 26 1185 26 1185 385 676 385Z" fill-rule="evenodd" clip-rule="evenodd"/></clipPath></defs><g clip-path="url(#clip0)" transform="translate(-676 -26)"><path d="M805.5 43.6671C805.5 34.7383 812.738 27.5001 821.667 27.5001L1032.33 27.5001C1041.26 27.5001 1048.5 34.7383 1048.5 43.6671L1048.5 108.333C1048.5 117.262 1041.26 124.5 1032.33 124.5L821.667 124.5C812.738 124.5 805.5 117.262 805.5 108.333Z" stroke="#70AD47" stroke-miterlimit="8" fill="#FFFFFF" fill-rule="evenodd"/><text font-family="Calibri,Calibri_MSFontService,sans-serif" font-weight="400" font-size="24" transform="translate(897.792 83)">Звуки</text><path d="M942.5 207.5C942.5 198.664 949.664 191.5 958.5 191.5L1168.5 191.5C1177.34 191.5 1184.5 198.664 1184.5 207.5L1184.5 271.5C1184.5 280.336 1177.34 287.5 1168.5 287.5L958.5 287.5C949.664 287.5 942.5 280.336 942.5 271.5Z" stroke="#44546A" stroke-miterlimit="8" fill="#FFFFFF" fill-rule="evenodd"/><text font-family="Calibri,Calibri_MSFontService,sans-serif" font-weight="400" font-size="24" transform="translate(1009.04 247)">Согласные</text><path d="M677.5 207.5C677.5 198.664 684.664 191.5 693.5 191.5L903.5 191.5C912.337 191.5 919.5 198.664 919.5 207.5L919.5 271.5C919.5 280.336 912.337 287.5 903.5 287.5L693.5 287.5C684.664 287.5 677.5 280.336 677.5 271.5Z" stroke="#000000" stroke-miterlimit="8" fill="#FFFFFF" fill-rule="evenodd"/><text font-family="Calibri,Calibri_MSFontService,sans-serif" font-weight="400" font-size="24" transform="translate(756.65 247)">Гласные</text><path d="M927.669 124.56 927.288 127.737 926.193 130.954 924.402 134.154 921.984 137.208 919.069 140.123 915.595 142.902 911.624 145.612 907.279 148.069 902.563 150.332 897.465 152.409 886.54 155.737 874.866 157.871 868.828 158.437 862.813 158.625 856.813 158.812 856.844 158.81 850.844 159.373 850.887 159.367 839.262 161.492 839.318 161.478 828.443 164.791 828.488 164.775 823.488 166.837 823.511 166.827 818.761 169.077 818.793 169.06 814.481 171.498 814.52 171.473 810.645 174.161 810.672 174.14 807.235 176.89 807.272 176.857 804.335 179.732 804.381 179.68 802.068 182.68 802.129 182.578 800.807 185.553 799.893 185.147 801.24 182.117 803.61 179.042 806.59 176.125 810.061 173.349 813.969 170.639 818.317 168.181 823.095 165.918 828.129 163.841 839.054 160.513 850.729 158.379 856.766 157.813 862.782 157.625 868.782 157.438 868.751 157.44 874.751 156.877 874.707 156.883 886.332 154.758 886.277 154.772 897.152 151.459 897.109 151.475 902.171 149.412 902.143 149.424 906.831 147.174 906.801 147.19 911.114 144.752 911.078 144.775 915.015 142.087 914.985 142.11 918.422 139.36 918.381 139.396 921.256 136.521 921.218 136.565 923.593 133.565 923.549 133.631 925.299 130.506 925.261 130.589 926.324 127.464 926.301 127.565 926.676 124.44ZM804.564 185.189 798.485 191.75 796.883 182.95Z" fill="#44546A"/><path d="M0.0595726-0.496438 3.24094-0.114674 6.46534 1.04611 9.66539 2.96614 12.7186 5.51048 15.6325 8.61441 18.4092 12.2746 21.119 16.4339 23.574 21.0921 25.8363 26.0566 27.912 31.4659 31.2381 43.0129 33.3712 55.3727 33.9368 61.7204 34.1248 68.1103 34.3123 74.4853 34.3105 74.4556 34.873 80.7681 34.8677 80.7275 36.9927 93.04 36.9805 92.9866 40.293 104.487 40.2786 104.444 42.3411 109.757 42.33 109.73 44.58 114.668 44.5673 114.642 47.0048 119.267 46.9814 119.227 49.6689 123.352 49.6483 123.323 52.3983 126.948 52.3645 126.908 55.2395 129.97 55.1951 129.928 58.1951 132.428 58.0895 132.361 61.0894 133.786 60.6604 134.689 57.6034 133.237 54.5314 130.677 51.6175 127.573 48.8408 123.913 46.1309 119.754 43.676 115.095 41.4141 110.132 39.3383 104.785 36.0119 93.2371 33.8788 80.8773 33.3132 74.5296 33.1252 68.1397 32.9377 61.7647 32.9395 61.7944 32.377 55.4819 32.3823 55.5225 30.2573 43.21 30.2695 43.2634 26.957 31.7634 26.9707 31.8041 24.9082 26.4291 24.92 26.4573 22.67 21.5198 22.6827 21.5456 20.2452 16.9206 20.2686 16.9604 17.5811 12.8354 17.6017 12.8647 14.8517 9.23969 14.8855 9.27972 12.0105 6.21722 12.0549 6.25911 9.05491 3.75911 9.11775 3.80375 5.99275 1.92875 6.08064 1.97044 2.95564 0.845444 3.06543 0.871438-0.0595726 0.496438ZM60.7699 130.022 67.25 136.187 58.4299 137.672Z" fill="#44546A" transform="matrix(-4.37114e-08 1 1 4.37114e-08 927.5 124.5)"/><path d="M677.5 303.667C677.5 294.738 684.738 287.5 693.667 287.5L903.333 287.5C912.262 287.5 919.5 294.738 919.5 303.667L919.5 368.333C919.5 377.262 912.262 384.5 903.333 384.5L693.667 384.5C684.738 384.5 677.5 377.262 677.5 368.333Z" stroke="#000000" stroke-miterlimit="8" fill="#FFFFFF" fill-rule="evenodd"/><text font-family="Arial,Arial_MSFontService,sans-serif" font-weight="400" font-size="24" transform="translate(738.577 329)">•<tspan font-family="Calibri,Calibri_MSFontService,sans-serif" x="30" y="0">Ударные</tspan><tspan x="-17.1534" y="29">•</tspan><tspan font-family="Calibri,Calibri_MSFontService,sans-serif" x="12.8466" y="29">Безударные</tspan></text><path d="M942.5 303.667C942.5 294.738 949.738 287.5 958.667 287.5L1168.33 287.5C1177.26 287.5 1184.5 294.738 1184.5 303.667L1184.5 368.333C1184.5 377.262 1177.26 384.5 1168.33 384.5L958.667 384.5C949.738 384.5 942.5 377.262 942.5 368.333Z" stroke="#000000" stroke-miterlimit="8" fill="#FFFFFF" fill-rule="evenodd"/><text font-family="Arial,Arial_MSFontService,sans-serif" font-weight="400" font-size="24" transform="translate(961.207 329)">•<tspan font-family="Calibri,Calibri_MSFontService,sans-serif" x="30" y="0">Звонкие </tspan><tspan font-family="Calibri,Calibri_MSFontService,sans-serif" x="120" y="0">–</tspan><tspan font-family="Calibri,Calibri_MSFontService,sans-serif" x="137.5" y="0">глухие</tspan><tspan x="-4.32001" y="29">•</tspan><tspan font-family="Calibri,Calibri_MSFontService,sans-serif" x="25.68" y="29">Твердые </tspan><tspan font-family="Calibri,Calibri_MSFontService,sans-serif" x="118.04" y="29">–</tspan><tspan font-family="Calibri,Calibri_MSFontService,sans-serif" x="135.54" y="29">мягкие</tspan></text></g></svg>